# xmcd
#
# Track frame offsets:
#	150
#	8825
#	19151
#	29260
#	39480
#	52687
#	64666
#	75697
#	84852
#	94103
#	105118
#
# Disc length: 1613 seconds
#
# Revision: 1
# Processed by: cddbd v1.5.2PL0 Copyright (c) Steve Scherf et al.
# Submitted via: audiograbber 1.83.01
#
DISCID=6b064b0b
DTITLE=Ronnie Milsap - Souvenirs
DYEAR=2009
DGENRE=Country
TTITLE0=Another Love Has Ended
TTITLE1=Lonely Weekends
TTITLE2=Don't Forget About Me
TTITLE3=Not For The Love Of You
TTITLE4=Plain And Simple
TTITLE5=It Went To Your Head
TTITLE6=Hello, Mary Ann
TTITLE7=Ain't No Soul Left In These Shoes
TTITLE8=Wish You Were Here
TTITLE9=Total Disaster
TTITLE10=Your Tears Leave Me Cold
EXTD=Fuel Label Group
EXTT0=
EXTT1=
EXTT2=
EXTT3=
EXTT4=
EXTT5=
EXTT6=
EXTT7=
EXTT8=
EXTT9=
EXTT10=
PLAYORDER=
